# xmcd
#
# Track frame offsets:
#	150
#	25271
#	42515
#	76108
#	95991
#	120507
#	145333
#	163698
#	186498
#	216766
#
# Disc length: 3246 seconds
# Revision: 0
# Processed by: cddbd v1.5.2PL0 Copyright (c) Steve Scherf et al.
# Submitted via: dBpowerAMP V12.0
#
DISCID=8d0cac0a
DTITLE=Roadhouse - Gods and Highways and Old Guitars
DYEAR=2013
DGENRE=Blues
TTITLE0=Hell on Wheels
TTITLE1=I Can't Say No
TTITLE2=Skinwalker
TTITLE3=Gods and Highways and Old Guitars
TTITLE4=Katrina
TTITLE5=The Big Easy
TTITLE6=Slow Down
TTITLE7=Spirits Across the Water
TTITLE8=Blue Motel
TTITLE9=Sinner
EXTD=
EXTT0=
EXTT1=
EXTT2=
EXTT3=
EXTT4=
EXTT5=
EXTT6=
EXTT7=
EXTT8=
EXTT9=
PLAYORDER=
